<svg xmlns="http://www.w3.org/2000/svg" xmlns:xlink="http://www.w3.org/1999/xlink" xmlns:a="http://ns.adobe.com/AdobeSVGViewerExtensions/3.0/" version="1.1" x="0px" y="0px" viewBox="5.303 -1.098 40 50" enable-background="new 5.303 -1.098 40 40" xml:space="preserve"><path display="none" d="M7.49,11.275l-1.662-2.21L0.42,14.472l9.198,7.116c-0.083,0.311-0.274,0.795-0.557,1.443  c-0.32,0.721-0.768,1.643-1.334,2.785c-0.539,1.078-1.068,2.092-1.571,3.041l-0.914,0.439H5.225L0,31.845l0.749,6.639h2.475  l-0.575-5.188l4.302-2.092l4.558,0.521l1.854,1.963l-0.703,4.795h2.484l0.831-5.617l-3.781-3.936  c0.091-0.211,0.201-0.467,0.319-0.785c0.247-0.641,0.558-1.518,0.923-2.631c0.101-0.311,0.21-0.641,0.319-0.987  c0.174-0.548,0.338-1.05,0.484-1.497c0.402-1.307,0.658-2.221,0.767-2.74l-2.42-7.354l3.873-3.873L15.491,6.16l-5.974,5.974  l0.877,2.996v0.009l1.151,3.927l-0.594,0.283l-6.503-5.033L7.49,11.275L7.49,11.275z"/><path display="none" d="M10.321,33.88c-0.101-0.127-0.201-0.246-0.32-0.365c-0.566-0.566-1.251-0.85-2.055-0.85  c-0.164,0-0.319,0.01-0.475,0.037c-0.356,0.055-0.676,0.174-0.978,0.348c-0.219,0.119-0.42,0.273-0.612,0.465  c-0.557,0.566-0.84,1.252-0.84,2.064c0,0.805,0.283,1.49,0.84,2.055c0.457,0.449,0.986,0.723,1.589,0.822  c0.137,0.01,0.265,0.02,0.402,0.027H8.02c0.776-0.008,1.434-0.291,1.982-0.85c0.576-0.564,0.859-1.25,0.859-2.055  C10.86,34.931,10.677,34.365,10.321,33.88L10.321,33.88z"/><path display="none" d="M40.326,9.978h-2.221v8.229c0.504-0.128,1.023-0.192,1.582-0.183c0.219,0,0.428,0.009,0.639,0.027  c0.795,0.064,1.525,0.274,2.191,0.612c0.467,0.237,0.904,0.539,1.307,0.904c1.059,0.958,1.598,2.128,1.607,3.49  c-0.01,1.36-0.549,2.52-1.607,3.488c-0.42,0.385-0.877,0.703-1.369,0.951c-0.678,0.328-1.416,0.52-2.221,0.584v12.613h2.221v-8.494  c1.625-0.412,3.076-1.205,4.355-2.365c2.055-1.863,3.07-4.119,3.061-6.777c0.01-2.641-1.006-4.896-3.061-6.769  c-0.201-0.183-0.41-0.356-0.621-0.529h8.75v-2.22H42.518v2.22l0.338,0.009h-2.529V9.978L40.326,9.978z"/><path display="none" d="M34.344,30.921c0,0.686,0.236,1.279,0.721,1.764c0.494,0.484,1.088,0.73,1.771,0.73  c0.686,0,1.279-0.246,1.764-0.73s0.73-1.078,0.73-1.764s-0.246-1.279-0.73-1.771c-0.484-0.484-1.078-0.721-1.764-0.721  c-0.684,0-1.277,0.236-1.771,0.721C34.58,29.644,34.344,30.236,34.344,30.921L34.344,30.921z"/><path display="none" fill="none" stroke="#000000" stroke-width="0.0091" stroke-linecap="round" stroke-linejoin="round" stroke-miterlimit="10" d="  M35.064,32.685c0.494,0.484,1.088,0.73,1.771,0.73c0.686,0,1.279-0.246,1.764-0.73s0.73-1.078,0.73-1.764s-0.246-1.279-0.73-1.771  c-0.484-0.484-1.078-0.721-1.764-0.721c-0.684,0-1.277,0.236-1.771,0.721c-0.484,0.494-0.721,1.086-0.721,1.771  S34.58,32.201,35.064,32.685L35.064,32.685z"/><path d="M40.861,12.112V7.994L24.47,7.885c-1.811-1.579-2.389-2.662-1.744-3.255c0.329-0.299,0.836-0.466,1.523-0.493h16.611V0.018  H20.983C18.966-0.131,17.4,0.649,16.29,2.352c-0.112,0.164-0.206,0.343-0.303,0.522c-0.317,0.754-0.453,1.538-0.44,2.333  c0.015,0.948,0.276,1.881,0.769,2.786c0.769,1.415,2.072,2.8,3.913,4.174c1.18,0.893,2.663,1.812,4.434,2.759  c2.457,1.303,3.843,2.689,4.16,4.16l-0.014-0.522l0.055,0.948c0.013,0.343,0.013,0.657,0.027,0.96  c0.026,0.934,0.055,1.676,0.082,2.21H9.343V26.8h25.011c1.523-0.344,2.636-1.359,3.336-3.047c0.137-0.358,0.248-0.713,0.344-1.071  c0.864-3.528-1.223-6.848-6.233-9.951c-0.329-0.206-0.645-0.414-0.96-0.62H40.861L40.861,12.112z"/><path d="M17.91,33.211c0,1.262,0.52,2.349,1.55,3.24c1.043,0.893,2.307,1.345,3.775,1.345c1.469,0,2.732-0.452,3.762-1.345  c1.044-0.892,1.566-1.979,1.566-3.24c0-1.263-0.522-2.349-1.566-3.241c-1.029-0.892-2.292-1.344-3.762-1.344  c-1.468,0-2.731,0.452-3.775,1.344C18.429,30.863,17.91,31.949,17.91,33.211L17.91,33.211z"/><text x="5.303" y="53.902" fill="#000000" font-size="5px" font-weight="bold" font-family="'Helvetica Neue', Helvetica, Arial-Unicode, Arial, Sans-serif">Created by N.K.Narasimhan</text><text x="5.303" y="58.902" fill="#000000" font-size="5px" font-weight="bold" font-family="'Helvetica Neue', Helvetica, Arial-Unicode, Arial, Sans-serif">from the Noun Project</text></svg>